<svg style="display: none;" id="icons" xmlns="http://www.w3.org/2000/svg"><symbol id="icons-android" viewBox="0 0 24 24"><g><g><path d="M0,0h24v24H0V0z" fill="none"/></g></g><g><g><path d="M17.6,9.48l1.84-3.18c0.16-0.31,0.04-0.69-0.26-0.85c-0.29-0.15-0.65-0.06-0.83,0.22l-1.88,3.24 c-2.86-1.21-6.08-1.21-8.94,0L5.65,5.67c-0.19-0.29-0.58-0.38-0.87-0.2C4.5,5.65,4.41,6.01,4.56,6.3L6.4,9.48 C3.3,11.25,1.28,14.44,1,18h22C22.72,14.44,20.7,11.25,17.6,9.48z M7,15.25c-0.69,0-1.25-0.56-1.25-1.25 c0-0.69,0.56-1.25,1.25-1.25S8.25,13.31,8.25,14C8.25,14.69,7.69,15.25,7,15.25z M17,15.25c-0.69,0-1.25-0.56-1.25-1.25 c0-0.69,0.56-1.25,1.25-1.25s1.25,0.56,1.25,1.25C18.25,14.69,17.69,15.25,17,15.25z"/></g></g></symbol><symbol id="icons-attach_file" viewBox="0 0 24 24"><path d="M0 0h24v24H0z" fill="none"/><path d="M16.5 6v11.5c0 2.21-1.79 4-4 4s-4-1.79-4-4V5c0-1.38 1.12-2.5 2.5-2.5s2.5 1.12 2.5 2.5v10.5c0 .55-.45 1-1 1s-1-.45-1-1V6H10v9.5c0 1.38 1.12 2.5 2.5 2.5s2.5-1.12 2.5-2.5V5c0-2.21-1.79-4-4-4S7 2.79 7 5v12.5c0 3.04 2.46 5.5 5.5 5.5s5.5-2.46 5.5-5.5V6h-1.5z"/></symbol><symbol id="icons-brush" viewBox="0 0 24 24"><path d="M0 0h24v24H0z" fill="none"/><path d="M7 14c-1.66 0-3 1.34-3 3 0 1.31-1.16 2-2 2 .92 1.22 2.49 2 4 2 2.21 0 4-1.79 4-4 0-1.66-1.34-3-3-3zm13.71-9.37l-1.34-1.34c-.39-.39-1.02-.39-1.41 0L9 12.25 11.75 15l8.96-8.96c.39-.39.39-1.02 0-1.41z"/></symbol><symbol id="icons-dashboard" viewBox="0 0 24 24"><path d="M0 0h24v24H0z" fill="none"/><path d="M3 13h8V3H3v10zm0 8h8v-6H3v6zm10 0h8V11h-8v10zm0-18v6h8V3h-8z"/></symbol><symbol id="icons-palette" viewBox="0 0 24 24"><g><rect fill="none" height="24" width="24"/></g><g><path d="M12,2C6.49,2,2,6.49,2,12s4.49,10,10,10c1.38,0,2.5-1.12,2.5-2.5c0-0.61-0.23-1.2-0.64-1.67c-0.08-0.1-0.13-0.21-0.13-0.33 c0-0.28,0.22-0.5,0.5-0.5H16c3.31,0,6-2.69,6-6C22,6.04,17.51,2,12,2z M17.5,13c-0.83,0-1.5-0.67-1.5-1.5c0-0.83,0.67-1.5,1.5-1.5 s1.5,0.67,1.5,1.5C19,12.33,18.33,13,17.5,13z M14.5,9C13.67,9,13,8.33,13,7.5C13,6.67,13.67,6,14.5,6S16,6.67,16,7.5 C16,8.33,15.33,9,14.5,9z M5,11.5C5,10.67,5.67,10,6.5,10S8,10.67,8,11.5C8,12.33,7.33,13,6.5,13S5,12.33,5,11.5z M11,7.5 C11,8.33,10.33,9,9.5,9S8,8.33,8,7.5C8,6.67,8.67,6,9.5,6S11,6.67,11,7.5z"/></g></symbol><symbol id="icons-person" viewBox="0 0 24 24"><path d="M0 0h24v24H0z" fill="none"/><path d="M12 12c2.21 0 4-1.79 4-4s-1.79-4-4-4-4 1.79-4 4 1.79 4 4 4zm0 2c-2.67 0-8 1.34-8 4v2h16v-2c0-2.66-5.33-4-8-4z"/></symbol><symbol id="icons-photo_library" viewBox="0 0 24 24"><path d="M0 0h24v24H0z" fill="none"/><path d="M22 16V4c0-1.1-.9-2-2-2H8c-1.1 0-2 .9-2 2v12c0 1.1.9 2 2 2h12c1.1 0 2-.9 2-2zm-11-4l2.03 2.71L16 11l4 5H8l3-4zM2 6v14c0 1.1.9 2 2 2h14v-2H4V6H2z"/></symbol><symbol id="icons-school" viewBox="0 0 24 24"><path d="M0 0h24v24H0z" fill="none"/><path d="M5 13.18v4L12 21l7-3.82v-4L12 17l-7-3.82zM12 3 1 9l11 6 9-4.91V17h2V9L12 3z"/></symbol><symbol id="icons-search" viewBox="0 0 24 24"><path d="M0 0h24v24H0z" fill="none"/><path d="M15.5 14h-.79l-.28-.27C15.41 12.59 16 11.11 16 9.5 16 5.91 13.09 3 9.5 3S3 5.91 3 9.5 5.91 16 9.5 16c1.61 0 3.09-.59 4.23-1.57l.27.28v.79l5 4.99L20.49 19l-4.99-5zm-6 0C7.01 14 5 11.99 5 9.5S7.01 5 9.5 5 14 7.01 14 9.5 11.99 14 9.5 14z"/></symbol><symbol id="icons-sort_by_alpha" viewBox="0 0 24 24"><path d="M0 0h24v24H0V0zm0 0h24v24H0V0zm.75.75h22.5v22.5H.75z" fill="none"/><path d="M14.94 4.66h-4.72l2.36-2.36zm-4.69 14.71h4.66l-2.33 2.33zM6.1 6.27L1.6 17.73h1.84l.92-2.45h5.11l.92 2.45h1.84L7.74 6.27H6.1zm-1.13 7.37l1.94-5.18 1.94 5.18H4.97zm10.76 2.5h6.12v1.59h-8.53v-1.29l5.92-8.56h-5.88v-1.6h8.3v1.26l-5.93 8.6z"/></symbol><symbol id="icons-star_border" viewBox="0 0 24 24"><path d="M0 0h24v24H0z" fill="none"/><path d="M22 9.24l-7.19-.62L12 2 9.19 8.63 2 9.24l5.46 4.73L5.82 21 12 17.27 18.18 21l-1.63-7.03L22 9.24zM12 15.4l-3.76 2.27 1-4.28-3.32-2.88 4.38-.38L12 6.1l1.71 4.04 4.38.38-3.32 2.88 1 4.28L12 15.4z"/></symbol><symbol id="icons-subtitles" viewBox="0 0 24 24"><path d="M0 0h24v24H0z" fill="none"/><path d="M20 4H4c-1.1 0-2 .9-2 2v12c0 1.1.9 2 2 2h16c1.1 0 2-.9 2-2V6c0-1.1-.9-2-2-2zM4 12h4v2H4v-2zm10 6H4v-2h10v2zm6 0h-4v-2h4v2zm0-4H10v-2h10v2z"/></symbol><symbol id="icons-swipe" viewBox="0 0 24 24"><g><rect fill="none" height="24" width="24" x="0"/></g><g><g><path d="M18.89,14.75l-4.09-2.04c-0.28-0.14-0.58-0.21-0.89-0.21H13v-6C13,5.67,12.33,5,11.5,5S10,5.67,10,6.5v10.74L6.75,16.5 c-0.33-0.07-0.68,0.03-0.92,0.28L5,17.62l4.54,4.79C9.92,22.79,10.68,23,11.21,23h6.16c1,0,1.84-0.73,1.98-1.72l0.63-4.46 C20.1,15.97,19.66,15.14,18.89,14.75z"/><path d="M20.13,3.87C18.69,2.17,15.6,1,12,1S5.31,2.17,3.87,3.87L2,2v5h5L4.93,4.93c1-1.29,3.7-2.43,7.07-2.43 s6.07,1.14,7.07,2.43L17,7h5V2L20.13,3.87z"/></g></g></symbol><symbol id="icons-wallpaper" viewBox="0 0 24 24"><path d="M0 0h24v24H0z" fill="none"/><path d="M4 4h7V2H4c-1.1 0-2 .9-2 2v7h2V4zm6 9l-4 5h12l-3-4-2.03 2.71L10 13zm7-4.5c0-.83-.67-1.5-1.5-1.5S14 7.67 14 8.5s.67 1.5 1.5 1.5S17 9.33 17 8.5zM20 2h-7v2h7v7h2V4c0-1.1-.9-2-2-2zm0 18h-7v2h7c1.1 0 2-.9 2-2v-7h-2v7zM4 13H2v7c0 1.1.9 2 2 2h7v-2H4v-7z"/></symbol></svg>